<svg width="68" height="70" viewBox="0 0 68 70" fill="none" xmlns="http://www.w3.org/2000/svg">
<path d="M37.4929 0.632446C34.6596 0.636601 31.8755 1.37284 29.4105 2.76977C26.9455 4.1667 24.8833 6.17691 23.4239 8.60545C23.1999 8.59078 22.9756 8.57945 22.7509 8.57145C17.6354 8.5673 12.6716 10.3086 8.67974 13.5077C4.6879 16.7067 1.907 21.1719 0.796579 26.1655C-0.313837 31.159 0.312707 36.382 2.57267 40.9712C4.83264 45.5605 8.59076 49.2413 13.226 51.4054C11.8938 54.1376 11.6234 57.2671 12.4672 60.1872C13.3111 63.1074 15.209 65.6103 17.7932 67.2107C20.3774 68.8112 23.4638 69.3951 26.4541 68.8495C29.4443 68.3039 32.1256 66.6674 33.978 64.2574C36.6384 66.4231 39.9109 67.7001 43.335 67.9085C46.7591 68.117 50.1623 67.2465 53.0658 65.4195C55.9692 63.5925 58.2267 60.9011 59.5205 57.724C60.8143 54.5468 61.0792 51.044 60.2779 47.7084C63.001 45.8783 65.1132 43.2743 66.3423 40.2323C67.5713 37.1903 67.8608 33.8499 67.1733 30.6418C66.4858 27.4338 64.8529 24.5053 62.4853 22.234C60.1176 19.9628 57.1238 18.453 53.8899 17.8994C53.9106 17.6254 53.9243 17.3511 53.931 17.0764C53.9315 12.7161 52.2 8.53411 49.1173 5.45032C46.0347 2.36653 41.8533 0.633507 37.4929 0.632446Z" fill="black"/>
<path d="M37.4929 0.632446C34.6596 0.636601 31.8755 1.37284 29.4105 2.76977C26.9455 4.1667 24.8833 6.17691 23.4239 8.60545C23.1999 8.59078 22.9756 8.57945 22.7509 8.57145C17.6354 8.5673 12.6716 10.3086 8.67974 13.5077C4.6879 16.7067 1.907 21.1719 0.796579 26.1655C-0.313837 31.159 0.312707 36.382 2.57267 40.9712C4.83264 45.5605 8.59076 49.2413 13.226 51.4054C11.8938 54.1376 11.6234 57.2671 12.4672 60.1872C13.3111 63.1074 15.209 65.6103 17.7932 67.2107C20.3774 68.8112 23.4638 69.3951 26.4541 68.8495C29.4443 68.3039 32.1256 66.6674 33.978 64.2574C36.6384 66.4231 39.9109 67.7001 43.335 67.9085C46.7591 68.117 50.1623 67.2465 53.0658 65.4195C55.9692 63.5925 58.2267 60.9011 59.5205 57.724C60.8143 54.5468 61.0792 51.044 60.2779 47.7084C63.0014 45.8786 65.1142 43.2747 66.3435 40.2326C67.5729 37.1904 67.8625 33.8497 67.1749 30.6415C66.4874 27.4332 64.8543 24.5045 62.4863 22.2333C60.1183 19.9621 57.1241 18.4526 53.8899 17.8994C53.9106 17.6254 53.9243 17.3511 53.931 17.0764C53.9315 12.7161 52.2 8.53411 49.1173 5.45032C46.0347 2.36653 41.8533 0.633507 37.4929 0.632446Z" fill="#5AA02C"/>
<path d="M36.63 8.85343C34.478 8.856 32.3632 9.41453 30.4906 10.4749C28.6181 11.5352 27.0512 13.0614 25.942 14.9054C25.772 14.8941 25.6016 14.8854 25.431 14.8794C21.545 14.8763 17.7742 16.1991 14.7417 18.6292C11.7093 21.0593 9.59678 24.4514 8.75321 28.2447C7.90965 32.0381 8.38556 36.0057 10.1023 39.4919C11.819 42.9782 14.6738 45.7744 18.195 47.4184C17.1831 49.494 16.9779 51.8713 17.6191 54.0896C18.2602 56.3078 19.7021 58.209 21.6652 59.4248C23.6283 60.6405 25.9728 61.0841 28.2444 60.6696C30.5159 60.2551 32.5527 59.0121 33.96 57.1814C35.9804 58.8297 38.4671 59.8024 41.0697 59.9623C43.6723 60.1222 46.2594 59.4612 48.4664 58.0726C50.6733 56.684 52.3888 54.6378 53.371 52.2223C54.3532 49.8069 54.5525 47.1442 53.941 44.6094C56.0097 43.2192 57.6144 41.241 58.5482 38.9301C59.4819 36.6191 59.7018 34.0814 59.1795 31.6442C58.6572 29.2071 57.4167 26.9824 55.6179 25.257C53.8192 23.5317 51.5447 22.3848 49.088 21.9644C49.104 21.7564 49.1143 21.5481 49.119 21.3394C49.119 18.0269 47.8031 14.85 45.4607 12.5077C43.1184 10.1653 39.9415 8.84943 36.629 8.84943L36.63 8.85343Z" fill="#71C837"/>
</svg>
