<svg width="80" height="173" viewBox="0 0 80 173" fill="none" xmlns="http://www.w3.org/2000/svg">
<path d="M2.10556 39.7144L77.8944 39.7144C79.0573 39.7144 80 38.7718 80 37.6089L80 15.9562C80 14.7933 79.0573 13.8506 77.8944 13.8506L2.10556 13.8506C0.942688 13.8506 0 14.7933 0 15.9562L0 37.6089C0 38.7718 0.942688 39.7144 2.10556 39.7144Z" fill="#1A1A1A"/>
<path d="M2.10556 150.092L77.8944 150.092C79.0573 150.092 80 149.15 80 147.987L80 126.334C80 125.171 79.0573 124.228 77.8944 124.228L2.10556 124.228C0.942688 124.228 0 125.171 0 126.334L0 147.987C0 149.15 0.942688 150.092 2.10556 150.092Z" fill="#1A1A1A"/>
<path d="M27.9522 118.572L52.0479 118.572C53.222 118.572 54.1737 117.621 54.1737 116.447L54.1737 100.02C54.1737 98.8462 53.222 97.8945 52.0479 97.8945H27.9522C26.7782 97.8945 25.8264 98.8462 25.8264 100.02L25.8264 116.447C25.8264 117.621 26.7782 118.572 27.9522 118.572Z" fill="#50224C"/>
<path d="M26.1668 172.633L53.8362 172.633C66.1276 172.633 76.0918 162.669 76.0918 150.378L76.0918 131.128C76.0918 118.836 66.1276 108.872 53.8362 108.872L26.1668 108.872C13.8754 108.872 3.91124 118.836 3.91124 131.128L3.91124 150.378C3.91124 162.669 13.8754 172.633 26.1668 172.633Z" fill="#40BF76"/>
<path d="M12.3335 105.867L67.6695 105.867C72.321 105.867 76.0918 102.096 76.0918 97.4445L76.0918 8.42229C76.0918 3.7708 72.321 2.28882e-05 67.6695 2.28882e-05L12.3335 2.28882e-05C7.68201 2.28882e-05 3.91124 3.7708 3.91124 8.42229L3.91124 97.4445C3.91124 102.096 7.68201 105.867 12.3335 105.867Z" fill="black"/>
<path d="M14.788 79.9885L65.2091 79.9885C66.176 79.9885 66.9599 79.2046 66.9599 78.2377C66.9599 77.2708 66.176 76.4869 65.2091 76.4869L14.788 76.4869C13.8211 76.4869 13.0372 77.2708 13.0372 78.2377C13.0372 79.2046 13.8211 79.9885 14.788 79.9885Z" fill="#BB652F"/>
<path d="M14.788 54.7851L65.2091 54.7851C66.176 54.7851 66.9599 54.0013 66.9599 53.0343C66.9599 52.0674 66.176 51.2835 65.2091 51.2835L14.788 51.2835C13.8211 51.2835 13.0372 52.0674 13.0372 53.0343C13.0372 54.0013 13.8211 54.7851 14.788 54.7851Z" fill="#BB652F"/>
<path d="M14.788 29.5847L65.2091 29.5847C66.176 29.5847 66.9599 28.8008 66.9599 27.8339C66.9599 26.8669 66.176 26.0831 65.2091 26.0831L14.788 26.0831C13.8211 26.0831 13.0372 26.8669 13.0372 27.8339C13.0372 28.8008 13.8211 29.5847 14.788 29.5847Z" fill="#BB652F"/>
<path d="M40.0001 156.995C53.3084 156.995 65.0937 152.134 69.2299 144.964C69.2299 144.964 49.752 145.717 40.0087 145.717C30.2654 145.717 10.7875 144.964 10.7875 144.964C14.9063 152.132 26.7004 156.986 40.0001 156.995Z" fill="#50224C"/>
<path d="M55.5956 168.748C58.3697 168.162 60.9314 166.83 63.0042 164.896C65.077 162.961 66.5822 160.498 67.358 157.77C64.5561 158.292 61.9612 159.601 59.8778 161.546C57.7943 163.49 56.3087 165.989 55.5956 168.748Z" fill="#FFDD55"/>
<path d="M24.4015 168.748C21.6274 168.162 19.0659 166.83 16.9931 164.896C14.9203 162.961 13.4151 160.498 12.6393 157.77C15.4412 158.292 18.0361 159.601 20.1195 161.546C22.203 163.49 23.6884 165.989 24.4015 168.748Z" fill="#FFDD55"/>
</svg>
