<svg width="375" height="812" viewBox="0 0 375 812" fill="none" xmlns="http://www.w3.org/2000/svg">
<path d="M295 0H80V812H295V0Z" fill="#90A0AD"/>
<path d="M375 0H316V812H375V0Z" fill="#D7D7D7"/>
<path d="M59 0H0V812H59V0Z" fill="#D7D7D7"/>
<path d="M299 0H295V812H299V0Z" fill="#1A1A1A"/>
<path d="M316 0H299V812H316V0Z" fill="url(#paint0_linear_315_3431)"/>
<path d="M74.6804 812H80L80 0.0446167H74.6804L74.6804 812Z" fill="#1A1A1A"/>
<path d="M59 812H75L75 0H59L59 812Z" fill="url(#paint1_linear_315_3431)"/>
<path d="M27.1895 533.611C31.2474 526.471 33.1805 515.63 31.5073 509.396C29.8341 503.162 25.1882 503.897 21.1304 511.037C17.0725 518.177 15.1394 529.018 16.8126 535.252C18.4858 541.485 23.1317 540.751 27.1895 533.611Z" fill="#CACACA"/>
<path d="M34.6773 168.558C40.7824 166.717 45.3106 156.077 44.7914 144.794C44.2721 133.512 38.9021 125.858 32.7971 127.7C26.692 129.542 22.1638 140.181 22.6831 151.464C23.2023 162.747 28.5723 170.4 34.6773 168.558Z" fill="#CACACA"/>
<path d="M21.2264 353.671L31.9655 324.8L35.3774 354.874L21.2264 353.671Z" fill="#CACACA"/>
<path d="M19.9759 715.763L40.0943 698.721L14.1509 691.704L19.9759 715.763Z" fill="#CACACA"/>
<path d="M353.969 287.022C358.893 287.022 362.884 280.914 362.884 273.38C362.884 265.846 358.893 259.739 353.969 259.739C349.046 259.739 345.054 265.846 345.054 273.38C345.054 280.914 349.046 287.022 353.969 287.022Z" fill="#CACACA"/>
<path d="M335.51 647.959C341.615 646.125 346.143 635.527 345.624 624.289C345.105 613.05 339.735 605.427 333.63 607.261C327.525 609.096 322.996 619.694 323.516 630.932C324.035 642.17 329.405 649.794 335.51 647.959Z" fill="#CACACA"/>
<path d="M350.441 610.147C351.892 609.747 352.967 607.046 352.843 604.113C352.719 601.181 351.442 599.127 349.992 599.526C348.541 599.926 347.466 602.627 347.59 605.56C347.714 608.493 348.991 610.546 350.441 610.147Z" fill="#CACACA"/>
<path d="M354.415 85.8205L358.424 56.2637L364.219 75.5893L363.328 96.0396L356.196 85.8145L354.415 85.8205Z" fill="#CACACA"/>
<path d="M351.74 786.041L359.759 753.074L363.769 786.041H351.74Z" fill="#CACACA"/>
<line x1="188.5" x2="188.5" y2="812" stroke="white" stroke-dasharray="50 50"/>
<path d="M187.839 261.284C187.488 261.284 187.14 261.296 186.793 261.311C186.411 261.325 186.034 261.352 185.66 261.386H185.638C180.589 261.823 175.785 263.793 171.847 267.042C167.909 270.292 165.018 274.67 163.548 279.612H161.698C161.506 279.612 161.316 279.65 161.138 279.725C160.961 279.799 160.8 279.909 160.664 280.047C160.528 280.186 160.421 280.35 160.347 280.531C160.274 280.711 160.237 280.905 160.237 281.101V296.427C160.237 296.622 160.274 296.816 160.347 296.997C160.421 297.177 160.528 297.342 160.664 297.48C160.8 297.618 160.961 297.728 161.138 297.803C161.316 297.877 161.506 297.916 161.698 297.915H162.454V337.342H161.698C161.506 337.342 161.316 337.38 161.138 337.454C160.961 337.529 160.8 337.639 160.664 337.777C160.528 337.915 160.421 338.08 160.347 338.261C160.274 338.441 160.237 338.635 160.237 338.831V354.156C160.237 354.352 160.274 354.546 160.347 354.727C160.421 354.907 160.528 355.072 160.664 355.21C160.8 355.348 160.961 355.458 161.138 355.533C161.316 355.607 161.506 355.646 161.698 355.645H162.98C163.434 357.983 164.428 360.176 165.878 362.046C169.893 367.201 180.811 367.48 187.839 367.48C194.867 367.48 206.415 367.573 209.8 362.046C211.014 360.076 211.893 357.912 212.402 355.645H214.295C214.487 355.646 214.677 355.607 214.855 355.533C215.032 355.458 215.193 355.348 215.329 355.21C215.465 355.072 215.572 354.907 215.646 354.727C215.719 354.546 215.757 354.352 215.756 354.156V338.831C215.757 338.635 215.719 338.441 215.646 338.261C215.572 338.08 215.465 337.915 215.329 337.777C215.193 337.639 215.032 337.529 214.855 337.454C214.677 337.38 214.487 337.342 214.295 337.342H213.223V297.915H214.295C214.487 297.916 214.677 297.877 214.855 297.803C215.032 297.728 215.193 297.618 215.329 297.48C215.465 297.342 215.572 297.177 215.646 296.997C215.719 296.816 215.757 296.622 215.756 296.427V281.101C215.757 280.905 215.719 280.711 215.646 280.531C215.572 280.35 215.465 280.186 215.329 280.047C215.193 279.909 215.032 279.799 214.855 279.725C214.677 279.65 214.487 279.612 214.295 279.612H212.133C210.663 274.67 207.772 270.292 203.833 267.042C199.895 263.793 195.091 261.823 190.042 261.386H190.018C189.651 261.355 189.283 261.328 188.913 261.313H188.882C188.536 261.299 188.187 261.287 187.839 261.287V261.284Z" fill="#1A1A1A"/>
<path d="M216.422 339.174H159.578C158.706 339.174 158 339.894 158 340.782V357.334C158 358.222 158.706 358.942 159.578 358.942H216.422C217.294 358.942 218 358.222 218 357.334V340.782C218 339.894 217.294 339.174 216.422 339.174Z" fill="#1A1A1A"/>
<path d="M216.422 276.802H159.578C158.706 276.802 158 277.522 158 278.41V294.962C158 295.85 158.706 296.57 159.578 296.57H216.422C217.294 296.57 218 295.85 218 294.962V278.41C218 277.522 217.294 276.802 216.422 276.802Z" fill="#1A1A1A"/>
<path d="M187.832 257C191.437 256.992 195.008 257.709 198.34 259.111C201.672 260.513 204.7 262.573 207.249 265.17C209.799 267.768 211.819 270.854 213.195 274.25C214.571 277.645 215.275 281.285 215.267 284.959V346.08C215.267 353.823 215.283 359.805 211.567 365.867C207.905 371.84 195.432 371.74 187.832 371.74C180.231 371.74 168.436 371.438 164.097 365.867C159.757 360.297 160.397 353.826 160.397 346.08V284.964C160.388 281.29 161.092 277.65 162.468 274.254C163.844 270.859 165.865 267.773 168.414 265.175C170.963 262.577 173.991 260.518 177.323 259.116C180.655 257.714 184.226 256.997 187.832 257.005V257Z" fill="#E44545"/>
<path d="M177.794 261.576C175.286 262.201 172.986 263.494 171.13 265.323C169.273 267.152 167.928 269.452 167.231 271.985C169.583 271.055 171.729 269.655 173.543 267.868C175.357 266.081 176.802 263.942 177.794 261.578V261.576Z" fill="#FFDD55"/>
<path d="M197.869 261.576C200.377 262.201 202.677 263.494 204.534 265.323C206.39 267.153 207.735 269.452 208.432 271.986C206.08 271.055 203.934 269.655 202.12 267.867C200.306 266.079 198.861 263.941 197.869 261.576V261.576Z" fill="#FFDD55"/>
<path d="M186.703 257.027C186.291 257.045 185.881 257.072 185.474 257.107H185.45C185.038 257.145 184.629 257.19 184.223 257.244V371.687C185.087 371.706 185.894 371.718 186.705 371.721V257.025L186.703 257.027ZM188.961 257.027V371.73C189.761 371.73 190.572 371.73 191.444 371.713V257.246C191.038 257.193 190.629 257.147 190.217 257.11H190.191C189.783 257.074 189.373 257.047 188.961 257.03V257.027Z" fill="white"/>
<path d="M192.043 294.571H183.621C174.318 294.571 166.777 302.256 166.777 311.736V346.822C166.777 356.302 174.318 363.987 183.621 363.987H192.043C201.345 363.987 208.886 356.302 208.886 346.822V311.736C208.886 302.256 201.345 294.571 192.043 294.571Z" fill="#162D50"/>
<path d="M194.291 312.407H181.37C169.787 312.407 160.397 321.976 160.397 333.781V333.783C160.397 345.587 169.787 355.156 181.37 355.156H194.291C205.875 355.156 215.265 345.587 215.265 333.783V333.781C215.265 321.976 205.875 312.407 194.291 312.407Z" fill="#E44545"/>
<path d="M184.223 312.407V355.156H186.705V312.407H184.223ZM188.959 312.407V355.156H191.441V312.407H188.959Z" fill="white"/>
<path d="M188.001 348.687C196.122 348.687 202.706 341.978 202.706 333.702C202.706 325.425 196.122 318.716 188.001 318.716C179.88 318.716 173.296 325.425 173.296 333.702C173.296 341.978 179.88 348.687 188.001 348.687Z" fill="white"/>
<path d="M146.488 122.372C143.016 122.372 139.895 121.731 137.126 120.45C134.357 119.169 132.145 117.288 130.492 114.808C128.88 112.287 128.074 109.249 128.074 105.694C128.074 103.214 128.508 100.527 129.376 97.634C131.277 91.434 134.15 86.97 137.994 84.242C141.838 81.4727 145.951 80.088 150.332 80.088C152.688 80.088 154.775 80.4393 156.594 81.142C158.413 81.8447 160.087 82.8573 161.616 84.18L163.29 82.878C164.406 82.01 165.336 81.4107 166.08 81.08C166.865 80.7493 167.733 80.584 168.684 80.584C169.717 80.584 170.544 80.8113 171.164 81.266C171.784 81.7207 172.094 82.382 172.094 83.25C172.094 83.7047 172.011 84.1593 171.846 84.614L168.374 94.286C168.002 95.402 167.547 96.1873 167.01 96.642C166.514 97.0967 165.749 97.324 164.716 97.324C163.641 97.324 162.753 96.952 162.05 96.208C161.389 95.4227 160.624 94.1 159.756 92.24C158.764 90.2973 157.958 89.016 157.338 88.396C156.718 87.776 155.809 87.466 154.61 87.466C152.915 87.466 151.283 88.52 149.712 90.628C148.141 92.6947 146.715 95.8153 145.434 99.99C144.359 103.503 143.822 106.438 143.822 108.794C143.822 110.861 144.215 112.411 145 113.444C145.785 114.436 146.839 114.932 148.162 114.932C150.105 114.932 151.696 114.498 152.936 113.63C154.217 112.762 155.519 111.584 156.842 110.096C157.669 109.187 158.33 108.525 158.826 108.112C159.363 107.657 159.921 107.43 160.5 107.43C161.244 107.43 162.029 107.802 162.856 108.546C163.683 109.29 164.075 110.034 164.034 110.778C164.075 111.687 163.331 113.093 161.802 114.994C160.314 116.895 158.227 118.611 155.54 120.14C152.895 121.628 149.877 122.372 146.488 122.372ZM202.634 114.684C202.469 115.221 202.386 115.759 202.386 116.296C202.386 116.751 202.448 117.143 202.572 117.474C202.696 117.763 202.82 118.011 202.944 118.218C203.109 118.383 203.213 118.507 203.254 118.59C203.667 119.003 203.874 119.417 203.874 119.83C203.874 119.913 203.833 120.119 203.75 120.45C203.585 121.029 203.213 121.442 202.634 121.69C202.097 121.897 201.249 122 200.092 122H185.398C184.53 122 183.848 121.855 183.352 121.566C182.897 121.277 182.67 120.884 182.67 120.388C182.67 120.14 182.732 119.871 182.856 119.582C182.98 119.251 183.145 119.003 183.352 118.838C183.6 118.631 183.931 118.404 184.344 118.156C185.005 117.784 185.543 117.371 185.956 116.916C186.369 116.461 186.721 115.717 187.01 114.684L188.622 109.352H178.95L177.276 112.886C176.573 114.415 176.222 115.614 176.222 116.482C176.222 116.978 176.305 117.391 176.47 117.722C176.635 118.011 176.883 118.321 177.214 118.652C177.503 118.983 177.689 119.272 177.772 119.52C177.896 119.727 177.917 120.016 177.834 120.388C177.669 121.008 177.317 121.442 176.78 121.69C176.284 121.897 175.478 122 174.362 122H165.124C164.173 122 163.45 121.835 162.954 121.504C162.458 121.132 162.21 120.657 162.21 120.078C162.21 119.417 162.458 118.9 162.954 118.528C163.409 118.115 164.111 117.681 165.062 117.226C166.302 116.606 167.294 116.007 168.038 115.428C168.782 114.808 169.423 113.961 169.96 112.886L180.996 90.008C182.691 86.4533 184.675 83.8907 186.948 82.32C189.263 80.708 192.301 79.902 196.062 79.902C200.278 79.902 203.543 80.77 205.858 82.506C208.173 84.2007 209.33 86.5773 209.33 89.636C209.33 90.9173 209.123 92.24 208.71 93.604L202.634 114.684ZM190.482 103.152L193.768 92.24C193.933 91.744 194.016 91.2273 194.016 90.69C194.016 89.9047 193.789 89.326 193.334 88.954C192.921 88.5407 192.321 88.334 191.536 88.334C190.544 88.334 189.697 88.6233 188.994 89.202C188.291 89.7807 187.589 90.814 186.886 92.302L181.802 103.152H190.482ZM255.411 93.294C254.75 95.6913 253.51 97.572 251.691 98.936C249.872 100.259 247.578 101.085 244.809 101.416C246.793 101.581 248.281 102.16 249.273 103.152C250.265 104.144 250.761 105.446 250.761 107.058C250.761 107.678 250.658 108.443 250.451 109.352L249.769 112.39C249.686 112.803 249.645 113.093 249.645 113.258C249.645 113.795 249.769 114.209 250.017 114.498C250.265 114.746 250.616 114.87 251.071 114.87C251.939 114.87 252.559 114.994 252.931 115.242C253.344 115.49 253.489 115.945 253.365 116.606C253.2 117.557 252.704 118.487 251.877 119.396C251.05 120.305 249.872 121.07 248.343 121.69C246.855 122.269 245.036 122.558 242.887 122.558C240.159 122.558 237.989 121.959 236.377 120.76C234.765 119.52 233.959 117.763 233.959 115.49C233.959 114.622 234.083 113.692 234.331 112.7L235.323 108.732C235.488 108.195 235.571 107.637 235.571 107.058C235.571 106.107 235.24 105.425 234.579 105.012C233.959 104.599 232.946 104.392 231.541 104.392H229.185L226.333 114.684C226.25 114.932 226.209 115.242 226.209 115.614C226.209 116.193 226.354 116.689 226.643 117.102C226.932 117.515 227.325 117.949 227.821 118.404C228.193 118.693 228.482 118.983 228.689 119.272C228.896 119.52 228.999 119.789 228.999 120.078C228.999 120.781 228.668 121.277 228.007 121.566C227.346 121.855 226.374 122 225.093 122H209.531C208.456 122 207.65 121.814 207.113 121.442C206.576 121.029 206.39 120.471 206.555 119.768C206.638 119.396 206.803 119.107 207.051 118.9C207.258 118.652 207.588 118.383 208.043 118.094C208.746 117.681 209.304 117.247 209.717 116.792C210.13 116.337 210.461 115.635 210.709 114.684L218.273 87.962C218.438 87.4247 218.521 86.908 218.521 86.412C218.521 85.9573 218.438 85.5853 218.273 85.296C218.149 84.9653 217.963 84.5933 217.715 84.18C217.343 83.6427 217.157 83.2087 217.157 82.878C217.157 82.754 217.198 82.5267 217.281 82.196C217.446 81.6587 217.798 81.2867 218.335 81.08C218.914 80.832 219.782 80.708 220.939 80.708H241.709C244.561 80.708 247.041 81.142 249.149 82.01C251.298 82.878 252.931 84.0767 254.047 85.606C255.204 87.094 255.783 88.7887 255.783 90.69C255.783 91.558 255.659 92.426 255.411 93.294ZM239.539 92.674C239.746 91.7233 239.849 91 239.849 90.504C239.849 88.3133 238.65 87.218 236.253 87.218H233.649L230.921 98.192H233.525C235.137 98.192 236.398 97.7993 237.307 97.014C238.258 96.2287 239.002 94.782 239.539 92.674ZM111.582 183.294C110.921 185.691 109.681 187.572 107.862 188.936C106.043 190.259 103.749 191.085 100.98 191.416C102.964 191.581 104.452 192.16 105.444 193.152C106.436 194.144 106.932 195.446 106.932 197.058C106.932 197.678 106.829 198.443 106.622 199.352L105.94 202.39C105.857 202.803 105.816 203.093 105.816 203.258C105.816 203.795 105.94 204.209 106.188 204.498C106.436 204.746 106.787 204.87 107.242 204.87C108.11 204.87 108.73 204.994 109.102 205.242C109.515 205.49 109.66 205.945 109.536 206.606C109.371 207.557 108.875 208.487 108.048 209.396C107.221 210.305 106.043 211.07 104.514 211.69C103.026 212.269 101.207 212.558 99.0579 212.558C96.3299 212.558 94.1599 211.959 92.5479 210.76C90.9359 209.52 90.1299 207.763 90.1299 205.49C90.1299 204.622 90.2539 203.692 90.5019 202.7L91.4939 198.732C91.6592 198.195 91.7419 197.637 91.7419 197.058C91.7419 196.107 91.4112 195.425 90.7499 195.012C90.1299 194.599 89.1172 194.392 87.7119 194.392H85.3559L82.5039 204.684C82.4212 204.932 82.3799 205.242 82.3799 205.614C82.3799 206.193 82.5245 206.689 82.8139 207.102C83.1032 207.515 83.4959 207.949 83.9919 208.404C84.3639 208.693 84.6532 208.983 84.8599 209.272C85.0665 209.52 85.1699 209.789 85.1699 210.078C85.1699 210.781 84.8392 211.277 84.1779 211.566C83.5165 211.855 82.5452 212 81.2639 212H65.7019C64.6272 212 63.8212 211.814 63.2839 211.442C62.7465 211.029 62.5605 210.471 62.7259 209.768C62.8085 209.396 62.9739 209.107 63.2219 208.9C63.4285 208.652 63.7592 208.383 64.2139 208.094C64.9165 207.681 65.4745 207.247 65.8879 206.792C66.3012 206.337 66.6319 205.635 66.8799 204.684L74.4439 177.962C74.6092 177.425 74.6919 176.908 74.6919 176.412C74.6919 175.957 74.6092 175.585 74.4439 175.296C74.3199 174.965 74.1339 174.593 73.8859 174.18C73.5139 173.643 73.3279 173.209 73.3279 172.878C73.3279 172.754 73.3692 172.527 73.4519 172.196C73.6172 171.659 73.9685 171.287 74.5059 171.08C75.0845 170.832 75.9525 170.708 77.1099 170.708H97.8799C100.732 170.708 103.212 171.142 105.32 172.01C107.469 172.878 109.102 174.077 110.218 175.606C111.375 177.094 111.954 178.789 111.954 180.69C111.954 181.558 111.83 182.426 111.582 183.294ZM95.7099 182.674C95.9165 181.723 96.0199 181 96.0199 180.504C96.0199 178.313 94.8212 177.218 92.4239 177.218H89.8199L87.0919 188.192H89.6959C91.3079 188.192 92.5685 187.799 93.4779 187.014C94.4285 186.229 95.1725 184.782 95.7099 182.674ZM149.141 204.684C148.975 205.221 148.893 205.759 148.893 206.296C148.893 206.751 148.955 207.143 149.079 207.474C149.203 207.763 149.327 208.011 149.451 208.218C149.616 208.383 149.719 208.507 149.761 208.59C150.174 209.003 150.381 209.417 150.381 209.83C150.381 209.913 150.339 210.119 150.257 210.45C150.091 211.029 149.719 211.442 149.141 211.69C148.603 211.897 147.756 212 146.599 212H131.905C131.037 212 130.355 211.855 129.859 211.566C129.404 211.277 129.177 210.884 129.177 210.388C129.177 210.14 129.239 209.871 129.363 209.582C129.487 209.251 129.652 209.003 129.859 208.838C130.107 208.631 130.437 208.404 130.851 208.156C131.512 207.784 132.049 207.371 132.463 206.916C132.876 206.461 133.227 205.717 133.517 204.684L135.129 199.352H125.457L123.783 202.886C123.08 204.415 122.729 205.614 122.729 206.482C122.729 206.978 122.811 207.391 122.977 207.722C123.142 208.011 123.39 208.321 123.721 208.652C124.01 208.983 124.196 209.272 124.279 209.52C124.403 209.727 124.423 210.016 124.341 210.388C124.175 211.008 123.824 211.442 123.287 211.69C122.791 211.897 121.985 212 120.869 212H111.631C110.68 212 109.957 211.835 109.461 211.504C108.965 211.132 108.717 210.657 108.717 210.078C108.717 209.417 108.965 208.9 109.461 208.528C109.915 208.115 110.618 207.681 111.569 207.226C112.809 206.606 113.801 206.007 114.545 205.428C115.289 204.808 115.929 203.961 116.467 202.886L127.503 180.008C129.197 176.453 131.181 173.891 133.455 172.32C135.769 170.708 138.807 169.902 142.569 169.902C146.785 169.902 150.05 170.77 152.365 172.506C154.679 174.201 155.837 176.577 155.837 179.636C155.837 180.917 155.63 182.24 155.217 183.604L149.141 204.684ZM136.989 193.152L140.275 182.24C140.44 181.744 140.523 181.227 140.523 180.69C140.523 179.905 140.295 179.326 139.841 178.954C139.427 178.541 138.828 178.334 138.043 178.334C137.051 178.334 136.203 178.623 135.501 179.202C134.798 179.781 134.095 180.814 133.393 182.302L128.309 193.152H136.989ZM176.126 212.372C172.654 212.372 169.533 211.731 166.764 210.45C163.994 209.169 161.783 207.288 160.13 204.808C158.518 202.287 157.712 199.249 157.712 195.694C157.712 193.214 158.146 190.527 159.014 187.634C160.915 181.434 163.788 176.97 167.632 174.242C171.476 171.473 175.588 170.088 179.97 170.088C182.326 170.088 184.413 170.439 186.232 171.142C188.05 171.845 189.724 172.857 191.254 174.18L192.928 172.878C194.044 172.01 194.974 171.411 195.718 171.08C196.503 170.749 197.371 170.584 198.322 170.584C199.355 170.584 200.182 170.811 200.802 171.266C201.422 171.721 201.732 172.382 201.732 173.25C201.732 173.705 201.649 174.159 201.484 174.614L198.012 184.286C197.64 185.402 197.185 186.187 196.648 186.642C196.152 187.097 195.387 187.324 194.354 187.324C193.279 187.324 192.39 186.952 191.688 186.208C191.026 185.423 190.262 184.1 189.394 182.24C188.402 180.297 187.596 179.016 186.976 178.396C186.356 177.776 185.446 177.466 184.248 177.466C182.553 177.466 180.92 178.52 179.35 180.628C177.779 182.695 176.353 185.815 175.072 189.99C173.997 193.503 173.46 196.438 173.46 198.794C173.46 200.861 173.852 202.411 174.638 203.444C175.423 204.436 176.477 204.932 177.8 204.932C179.742 204.932 181.334 204.498 182.574 203.63C183.855 202.762 185.157 201.584 186.48 200.096C187.306 199.187 187.968 198.525 188.464 198.112C189.001 197.657 189.559 197.43 190.138 197.43C190.882 197.43 191.667 197.802 192.494 198.546C193.32 199.29 193.713 200.034 193.672 200.778C193.713 201.687 192.969 203.093 191.44 204.994C189.952 206.895 187.864 208.611 185.178 210.14C182.532 211.628 179.515 212.372 176.126 212.372ZM224.4 170.708C225.268 170.708 225.929 170.853 226.384 171.142C226.88 171.39 227.128 171.762 227.128 172.258C227.128 172.465 227.066 172.733 226.942 173.064C226.818 173.353 226.632 173.622 226.384 173.87C226.177 174.077 225.971 174.242 225.764 174.366C225.599 174.449 225.475 174.531 225.392 174.614C224.731 174.986 224.193 175.399 223.78 175.854C223.367 176.309 223.015 177.011 222.726 177.962L215.224 204.684C215.059 205.221 214.976 205.738 214.976 206.234C214.976 206.73 215.038 207.143 215.162 207.474C215.327 207.805 215.555 208.156 215.844 208.528C216.216 209.065 216.402 209.499 216.402 209.83C216.402 209.913 216.361 210.119 216.278 210.45C216.113 211.029 215.741 211.442 215.162 211.69C214.583 211.897 213.715 212 212.558 212H197.988C197.12 212 196.459 211.855 196.004 211.566C195.508 211.277 195.26 210.884 195.26 210.388C195.26 210.14 195.322 209.871 195.446 209.582C195.611 209.127 195.88 208.776 196.252 208.528C196.624 208.28 196.851 208.135 196.934 208.094C197.595 207.681 198.133 207.267 198.546 206.854C198.959 206.399 199.311 205.676 199.6 204.684L207.164 177.962C207.329 177.425 207.412 176.908 207.412 176.412C207.412 175.957 207.329 175.585 207.164 175.296C207.04 174.965 206.854 174.593 206.606 174.18C206.234 173.643 206.048 173.209 206.048 172.878C206.048 172.754 206.089 172.527 206.172 172.196C206.337 171.659 206.689 171.287 207.226 171.08C207.805 170.832 208.673 170.708 209.83 170.708H224.4ZM272.113 170.708C273.808 170.708 274.655 171.245 274.655 172.32C274.655 172.609 274.635 172.816 274.593 172.94C274.469 173.353 274.283 173.684 274.035 173.932C273.787 174.139 273.436 174.387 272.981 174.676C272.361 175.048 271.845 175.461 271.431 175.916C271.018 176.371 270.667 177.073 270.377 178.024L262.689 205.552C261.987 208.032 261.098 209.768 260.023 210.76C258.99 211.752 257.543 212.248 255.683 212.248C254.03 212.248 252.645 211.773 251.529 210.822C250.455 209.83 249.442 208.321 248.491 206.296L239.129 186.58L233.921 204.684C233.797 205.221 233.735 205.697 233.735 206.11C233.735 206.647 233.818 207.102 233.983 207.474C234.19 207.805 234.459 208.156 234.789 208.528C235.244 209.065 235.471 209.52 235.471 209.892C235.471 210.14 235.451 210.326 235.409 210.45C235.244 211.029 234.872 211.442 234.293 211.69C233.715 211.897 232.847 212 231.689 212H224.931C223.237 212 222.389 211.463 222.389 210.388C222.389 210.099 222.41 209.892 222.451 209.768C222.575 209.355 222.761 209.045 223.009 208.838C223.257 208.59 223.609 208.321 224.063 208.032C224.683 207.66 225.2 207.247 225.613 206.792C226.027 206.337 226.378 205.635 226.667 204.684L234.541 176.846L233.549 174.8C233.136 173.973 232.929 173.25 232.929 172.63C232.929 171.349 233.756 170.708 235.409 170.708H244.585C245.908 170.708 246.9 171.018 247.561 171.638C248.264 172.217 249.008 173.271 249.793 174.8L258.845 192.966L263.123 178.024C263.247 177.445 263.309 176.97 263.309 176.598C263.309 176.061 263.206 175.627 262.999 175.296C262.834 174.924 262.586 174.552 262.255 174.18C261.801 173.643 261.573 173.188 261.573 172.816C261.573 172.568 261.594 172.382 261.635 172.258C261.801 171.679 262.173 171.287 262.751 171.08C263.33 170.832 264.198 170.708 265.355 170.708H272.113ZM287.214 212.372C284.445 212.372 281.924 211.773 279.65 210.574C277.418 209.334 275.641 207.536 274.318 205.18C272.996 202.783 272.334 199.931 272.334 196.624C272.334 194.103 272.768 191.292 273.636 188.192C275.538 181.579 278.514 176.908 282.564 174.18C286.656 171.452 291.017 170.088 295.646 170.088C299.862 170.088 303.665 171.617 307.054 174.676L308.914 172.878C309.948 172.01 310.836 171.411 311.58 171.08C312.324 170.749 313.192 170.584 314.184 170.584C315.259 170.584 316.127 170.853 316.788 171.39C317.45 171.886 317.78 172.568 317.78 173.436C317.78 173.767 317.718 174.159 317.594 174.614L315.362 182.426C314.949 183.749 314.453 184.679 313.874 185.216C313.337 185.753 312.593 186.022 311.642 186.022C310.65 186.022 309.762 185.774 308.976 185.278C308.232 184.782 307.364 183.893 306.372 182.612C305.05 180.876 303.872 179.657 302.838 178.954C301.846 178.21 300.751 177.838 299.552 177.838C297.692 177.838 295.915 178.789 294.22 180.69C292.567 182.55 291.12 185.671 289.88 190.052C289.095 192.904 288.702 195.363 288.702 197.43C288.702 199.621 289.116 201.295 289.942 202.452C290.81 203.568 292.009 204.126 293.538 204.126C294.861 204.126 295.874 203.816 296.576 203.196C297.32 202.576 297.899 201.501 298.312 199.972L298.746 198.422C298.953 197.595 299.056 197.037 299.056 196.748C299.056 196.252 298.932 195.901 298.684 195.694C298.478 195.487 298.106 195.26 297.568 195.012L295.398 194.206C294.448 193.834 293.972 193.152 293.972 192.16C293.972 191.871 293.993 191.643 294.034 191.478C294.2 190.941 294.489 190.548 294.902 190.3C295.357 190.052 296.039 189.928 296.948 189.928L315.672 189.99C317.036 189.99 317.718 190.424 317.718 191.292C317.718 191.457 317.677 191.705 317.594 192.036C317.429 192.656 317.16 193.152 316.788 193.524C316.416 193.896 315.879 194.268 315.176 194.64L313.564 195.57C313.151 195.818 312.841 196.066 312.634 196.314C312.428 196.521 312.283 196.789 312.2 197.12L308.914 208.59C308.501 209.954 308.026 210.863 307.488 211.318C306.992 211.773 306.372 212 305.628 212H303.024C302.032 212 301.206 211.793 300.544 211.38C299.924 210.967 299.408 210.161 298.994 208.962L298.374 207.164C295.398 210.636 291.678 212.372 287.214 212.372Z" fill="#FFDD55"/>
<defs>
<linearGradient id="paint0_linear_315_3431" x1="298.983" y1="341.04" x2="316.034" y2="341.04" gradientUnits="userSpaceOnUse">
<stop stop-color="#9B9B9B"/>
<stop offset="0.246" stop-color="#9B9B9B"/>
<stop offset="0.289" stop-color="#AAAAAA"/>
<stop offset="0.487" stop-color="#AAAAAA"/>
<stop offset="0.522" stop-color="#BCBCBC"/>
<stop offset="1" stop-color="#BCBCBC"/>
</linearGradient>
<linearGradient id="paint1_linear_315_3431" x1="75.016" y1="341.04" x2="58.968" y2="341.04" gradientUnits="userSpaceOnUse">
<stop stop-color="#9B9B9B"/>
<stop offset="0.246" stop-color="#9B9B9B"/>
<stop offset="0.289" stop-color="#AAAAAA"/>
<stop offset="0.487" stop-color="#AAAAAA"/>
<stop offset="0.522" stop-color="#BCBCBC"/>
<stop offset="1" stop-color="#BCBCBC"/>
</linearGradient>
</defs>
</svg>
