<svg width="60" height="115" viewBox="0 0 60 115" fill="none" xmlns="http://www.w3.org/2000/svg">
<path d="M29.8389 4.28415C29.488 4.28415 29.1395 4.29635 28.7933 4.31095C28.4114 4.32555 28.0342 4.35232 27.6594 4.38638H27.638C22.5891 4.823 17.7849 6.79327 13.8467 10.0425C9.90855 13.2917 7.01755 17.6703 5.54765 22.612H3.69765C3.50571 22.6116 3.3156 22.6499 3.13821 22.7246C2.96082 22.7994 2.79965 22.909 2.66393 23.0473C2.52821 23.1856 2.4206 23.3499 2.34729 23.5307C2.27398 23.7114 2.23643 23.9051 2.23674 24.1007V39.4267C2.23643 39.6223 2.27398 39.816 2.34729 39.9968C2.4206 40.1775 2.52821 40.3418 2.66393 40.4801C2.79965 40.6184 2.96082 40.7281 3.13821 40.8028C3.3156 40.8775 3.50571 40.9158 3.69765 40.9155H4.45437V80.3419H3.69765C3.50571 80.3416 3.3156 80.3799 3.13821 80.4546C2.96082 80.5293 2.79965 80.6389 2.66393 80.7773C2.52821 80.9156 2.4206 81.0798 2.34729 81.2606C2.27398 81.4414 2.23643 81.6351 2.23674 81.8307V97.1566C2.23643 97.3522 2.27398 97.5459 2.34729 97.7267C2.4206 97.9075 2.52821 98.0717 2.66393 98.21C2.79965 98.3483 2.96082 98.458 3.13821 98.5327C3.3156 98.6074 3.50571 98.6457 3.69765 98.6454H4.97954C5.43424 100.983 6.42749 103.176 7.87746 105.046C11.8926 110.201 22.8113 110.48 29.8389 110.48C36.8666 110.48 48.4154 110.573 51.8003 105.046C53.0134 103.076 53.893 100.912 54.4022 98.6454H56.2952C56.4872 98.6457 56.6772 98.6074 56.8546 98.5327C57.032 98.458 57.1932 98.3483 57.3289 98.21C57.4647 98.0717 57.5722 97.9075 57.6455 97.7267C57.7188 97.5459 57.7564 97.3522 57.7561 97.1566V81.8307C57.7564 81.6351 57.7188 81.4414 57.6455 81.2606C57.5722 81.0798 57.4647 80.9156 57.3289 80.7773C57.1932 80.6389 57.032 80.5293 56.8546 80.4546C56.6772 80.3799 56.4872 80.3416 56.2952 80.3419H55.2234V40.9155H56.2952C56.4872 40.9158 56.6772 40.8775 56.8546 40.8028C57.032 40.7281 57.1932 40.6184 57.3289 40.4801C57.4647 40.3418 57.5722 40.1775 57.6455 39.9968C57.7188 39.816 57.7564 39.6223 57.7561 39.4267V24.1007C57.7564 23.9051 57.7188 23.7114 57.6455 23.5307C57.5722 23.3499 57.4647 23.1856 57.3289 23.0473C57.1932 22.909 57.032 22.7994 56.8546 22.7246C56.6772 22.6499 56.4872 22.6116 56.2952 22.612H54.1325C52.6626 17.6703 49.7716 13.2917 45.8334 10.0425C41.8952 6.79327 37.091 4.823 32.0422 4.38638H32.0183C31.6507 4.35475 31.2831 4.32792 30.9131 4.31333H30.8821C30.5359 4.29873 30.1874 4.2866 29.8389 4.2866V4.28415Z" fill="#1A1A1A"/>
<path d="M58.4221 82.1737H1.57788C0.706441 82.1737 0 82.8936 0 83.7817V100.334C0 101.222 0.706441 101.942 1.57788 101.942H58.4221C59.2936 101.942 60 101.222 60 100.334V83.7817C60 82.8936 59.2936 82.1737 58.4221 82.1737Z" fill="#1A1A1A"/>
<path d="M58.4221 19.8021H1.57788C0.706441 19.8021 0 20.522 0 21.4101V37.962C0 38.8501 0.706441 39.57 1.57788 39.57H58.4221C59.2936 39.57 60 38.8501 60 37.962V21.4101C60 20.522 59.2936 19.8021 58.4221 19.8021Z" fill="#1A1A1A"/>
<path d="M29.8316 0.000132913C33.4367 -0.00820678 37.0079 0.709249 40.3401 2.11136C43.6724 3.51346 46.7002 5.57257 49.2494 8.17045C51.7986 10.7683 53.819 13.8538 55.1949 17.2497C56.5707 20.6456 57.2749 24.285 57.2667 27.9589V89.08C57.2667 96.8232 57.2833 102.805 53.5666 108.867C49.9047 114.84 37.4321 114.74 29.8316 114.74C22.231 114.74 10.4363 114.438 6.09654 108.867C1.75678 103.297 2.39655 96.8256 2.39655 89.08V27.9638C2.38837 24.2898 3.09239 20.6504 4.46823 17.2545C5.84407 13.8587 7.86464 10.7732 10.4139 8.17535C12.9631 5.57747 15.9907 3.51836 19.323 2.11626C22.6552 0.714149 26.2264 -0.00334409 29.8316 0.0049956V0.000132913Z" fill="#E44545"/>
<path d="M19.7939 4.57596C17.2858 5.20083 14.9857 6.49414 13.1296 8.32331C11.2734 10.1525 9.9278 12.4517 9.23086 14.9854C11.5828 14.055 13.7289 12.6551 15.5428 10.868C17.3567 9.08086 18.802 6.9425 19.7939 4.57841V4.57596Z" fill="#FFDD55"/>
<path d="M39.8692 4.57611C42.3774 5.20098 44.6774 6.49429 46.5336 8.32346C48.3897 10.1526 49.7352 12.4519 50.4322 14.9856C48.08 14.0548 45.934 12.6546 44.1201 10.8671C42.3062 9.07951 40.8609 6.94066 39.8692 4.57611Z" fill="#FFDD55"/>
<path d="M28.7029 0.026986C28.2907 0.0448257 27.8809 0.0715596 27.4735 0.107239H27.4496C27.0374 0.14454 26.6285 0.189949 26.2227 0.243468V114.686C27.0868 114.706 27.8936 114.718 28.7052 114.721V0.0245361L28.7029 0.026986ZM30.9611 0.026986V114.73C31.7607 114.73 32.5723 114.73 33.4436 114.713V0.245918C33.0378 0.192399 32.6289 0.14699 32.2167 0.109689H32.1905C31.7831 0.0740095 31.3732 0.0472385 30.9611 0.0293988V0.026986Z" fill="white"/>
<path d="M34.0424 37.5705H25.6207C16.3183 37.5705 8.77727 45.2556 8.77727 54.7355V89.8221C8.77727 99.302 16.3183 106.987 25.6207 106.987H34.0424C43.3448 106.987 50.8859 99.302 50.8859 89.8221V54.7355C50.8859 45.2556 43.3448 37.5705 34.0424 37.5705Z" fill="#162D50"/>
<path d="M36.2913 55.407H23.3699C11.7867 55.407 2.39671 64.9762 2.39671 76.7805V76.7829C2.39671 88.5872 11.7867 98.1565 23.3699 98.1565H36.2913C47.8744 98.1565 57.2644 88.5872 57.2644 76.7829V76.7805C57.2644 64.9762 47.8744 55.407 36.2913 55.407Z" fill="#E44545"/>
<path d="M26.2227 55.407V98.1565H28.7052V55.407H26.2227ZM30.9587 55.407V98.1565H33.4413V55.407H30.9587Z" fill="white"/>
<path d="M30.0011 91.6869C38.1223 91.6869 44.7057 84.9777 44.7057 76.7016C44.7057 68.4254 38.1223 61.7163 30.0011 61.7163C21.88 61.7163 15.2965 68.4254 15.2965 76.7016C15.2965 84.9777 21.88 91.6869 30.0011 91.6869Z" fill="white"/>
</svg>
