<svg width="60" height="115" viewBox="0 0 60 115" fill="none" xmlns="http://www.w3.org/2000/svg">
<path d="M1.57788 29.6933L58.4221 29.6933C59.2936 29.6933 60 28.9869 60 28.1154L60 11.8735C60 11.0021 59.2936 10.2956 58.4221 10.2956L1.57788 10.2956C0.70644 10.2956 0 11.0021 0 11.8735L0 28.1154C0 28.9869 0.70644 29.6933 1.57788 29.6933Z" fill="#1A1A1A"/>
<path d="M1.57788 95.408L58.4221 95.408C59.2936 95.408 60 94.7016 60 93.8301L60 77.5882C60 76.7168 59.2936 76.0104 58.4221 76.0104L1.57788 76.0104C0.70644 76.0104 0 76.7168 0 77.5882L0 93.8301C0 94.7016 0.70644 95.408 1.57788 95.408Z" fill="#1A1A1A"/>
<path d="M21.6821 114.841L38.6521 114.841C49.1172 114.841 57.6009 106.358 57.6009 95.8926L57.6009 18.9489C57.6009 8.4837 49.1172 -7.62939e-06 38.6521 -7.62939e-06L21.6821 -7.62939e-06C11.2169 -7.62939e-06 2.73322 8.4837 2.73322 18.9489L2.73322 95.8926C2.73322 106.358 11.2169 114.841 21.6821 114.841Z" fill="#333333"/>
<path d="M17.3853 84.0645L42.9513 84.0645C47.5194 84.0645 51.2226 80.3613 51.2226 75.7931L51.2226 24.2196C51.2226 19.6515 47.5194 15.9483 42.9513 15.9483L17.3853 15.9483C12.8172 15.9483 9.11398 19.6515 9.11398 24.2196L9.11398 75.7931C9.11398 80.3613 12.8172 84.0645 17.3853 84.0645Z" fill="#5FBCD3"/>
<path d="M43.1828 114.297C46.4386 113.501 49.4241 111.854 51.8335 109.525C54.2429 107.195 55.9895 104.266 56.8943 101.039C53.841 102.224 51.0552 104.008 48.7006 106.284C46.3459 108.561 44.4701 111.285 43.1828 114.297Z" fill="#FFDD55"/>
<path d="M17.1227 114.297C13.8669 113.501 10.8814 111.854 8.472 109.525C6.06258 107.195 4.31599 104.266 3.41119 101.039C6.46454 102.224 9.25032 104.008 11.6049 106.284C13.9595 108.561 15.8354 111.285 17.1227 114.297Z" fill="#FFDD55"/>
<path d="M57.6009 74.0123L57.6009 21.0734H50.5637L50.4444 23.4605L9.86356 23.4605L9.74408 21.0734H2.72845L2.72845 74.0123H9.12356L9.1473 70.0259L51.1844 70.0259L51.2083 74.0123H57.6009Z" fill="white"/>
<path d="M16.5116 59.5489L43.8201 59.5489C45.7977 59.5489 47.4008 57.9463 47.4008 55.9694C47.4008 53.9925 45.7977 52.3899 43.8201 52.3899L16.5116 52.3899C14.5341 52.3899 12.9309 53.9925 12.9309 55.9694C12.9309 57.9463 14.5341 59.5489 16.5116 59.5489Z" fill="#FF5555"/>
<path d="M28.5498 59.5489L28.5498 52.3875H16.514C15.5644 52.3875 14.6536 52.7648 13.9821 53.4363C13.3106 54.1078 12.9334 55.0185 12.9334 55.9682C12.9334 56.9178 13.3106 57.8286 13.9821 58.5001C14.6536 59.1716 15.5644 59.5489 16.514 59.5489L28.5498 59.5489Z" fill="#00FFFF"/>
<path d="M31.7844 59.5489L31.7844 52.3875H28.5498L28.5498 59.5489H31.7844Z" fill="#983E66"/>
<path d="M42.598 13.7739H41.408C41.1727 13.7739 40.9831 13.7073 40.8391 13.5741C40.6951 13.4421 40.6231 13.256 40.6231 13.016C40.6231 12.8096 40.6873 12.6295 40.8157 12.4759C40.9441 12.3235 41.1415 12.2473 41.408 12.2473H42.2397V11.1293H42.598V13.7739ZM40.9849 13.0142C40.9849 13.2086 41.0569 13.3407 41.2009 13.4103C41.2802 13.4475 41.3888 13.4661 41.5268 13.4661H42.2397V12.5497H41.5268C41.366 12.5497 41.2358 12.5839 41.1361 12.6524C41.0353 12.7208 40.9849 12.8414 40.9849 13.0142ZM39.4511 11.3381C39.2362 11.3381 39.0892 11.4192 39.01 11.5812C38.9296 11.7444 38.8894 11.9256 38.8894 12.1249C38.8894 12.3049 38.9182 12.4513 38.9758 12.5641C39.067 12.7418 39.2242 12.8306 39.4475 12.8306C39.6455 12.8306 39.7895 12.755 39.8795 12.6037C39.9695 12.4525 40.0146 12.2701 40.0146 12.0565C40.0146 11.8512 39.9695 11.6802 39.8795 11.5434C39.7895 11.4065 39.6467 11.3381 39.4511 11.3381ZM39.4385 13.1132C39.19 13.1132 38.98 13.0304 38.8084 12.8648C38.6367 12.6992 38.5509 12.4555 38.5509 12.1339C38.5509 11.823 38.6265 11.5662 38.7778 11.3633C38.929 11.1605 39.1636 11.0591 39.4817 11.0591C39.7469 11.0591 39.9575 11.1485 40.1136 11.3273C40.2696 11.5074 40.3476 11.7486 40.3476 12.0511C40.3476 12.3751 40.2654 12.6331 40.101 12.8252C39.9365 13.0172 39.7157 13.1132 39.4385 13.1132ZM38.1549 13.7739H37.8308V11.1293H38.1549V13.7739ZM37.3429 13.0484H37.0135V11.1293H37.3429V13.0484ZM37.3429 13.7739H37.0135V13.4067H37.3429V13.7739ZM35.7785 13.1132C35.5612 13.1132 35.3848 13.0604 35.2492 12.9548C35.1124 12.8492 35.0301 12.6674 35.0025 12.4093H35.3176C35.3368 12.5281 35.3806 12.6265 35.449 12.7046C35.5174 12.7838 35.6272 12.8234 35.7785 12.8234C35.9849 12.8234 36.1325 12.7226 36.2213 12.5209C36.2789 12.3901 36.3077 12.2287 36.3077 12.0367C36.3077 11.8434 36.2669 11.6808 36.1853 11.5488C36.1037 11.4167 35.9753 11.3507 35.8001 11.3507C35.6656 11.3507 35.5594 11.3915 35.4814 11.4732C35.4022 11.556 35.3476 11.6688 35.3176 11.8116L35.0025 11.8116C35.0385 11.556 35.1286 11.3687 35.2726 11.2499C35.4166 11.1323 35.6008 11.0735 35.8253 11.0735C36.0773 11.0735 36.2783 11.1653 36.4284 11.3489C36.5784 11.5338 36.6534 11.7642 36.6534 12.0403C36.6534 12.3787 36.5712 12.6421 36.4068 12.8306C36.2423 13.019 36.0329 13.1132 35.7785 13.1132ZM33.8756 13.1006C33.7387 13.1006 33.6061 13.0682 33.4777 13.0034C33.3493 12.9398 33.2515 12.857 33.1842 12.755C33.1194 12.6578 33.0762 12.5443 33.0546 12.4147C33.0354 12.3259 33.0258 12.1843 33.0258 11.9898H34.439C34.433 11.7942 34.3868 11.637 34.3004 11.5182C34.214 11.4005 34.0802 11.3417 33.899 11.3417C33.7297 11.3417 33.5947 11.3975 33.4939 11.5092C33.4363 11.574 33.3955 11.649 33.3715 11.7342H33.0528C33.0612 11.6634 33.0894 11.5842 33.1374 11.4966C33.1842 11.4101 33.2371 11.3393 33.2959 11.2841C33.3943 11.1881 33.5161 11.1233 33.6613 11.0897C33.7393 11.0705 33.8275 11.0609 33.926 11.0609C34.166 11.0609 34.3694 11.1479 34.5363 11.3219C34.7031 11.4972 34.7865 11.742 34.7865 12.0565C34.7865 12.3661 34.7025 12.6175 34.5345 12.8108C34.3664 13.004 34.1468 13.1006 33.8756 13.1006ZM33.3589 12.2473C33.3721 12.3877 33.4027 12.4999 33.4507 12.5839C33.5395 12.74 33.6877 12.818 33.8954 12.818C34.0442 12.818 34.169 12.764 34.2698 12.656C34.3706 12.5491 34.424 12.4129 34.43 12.2473H33.3589Z" fill="white"/>
</svg>
