<svg width="60" height="115" viewBox="0 0 60 115" fill="none" xmlns="http://www.w3.org/2000/svg">
<path d="M1.57788 29.6933L58.4221 29.6933C59.2936 29.6933 60 28.9869 60 28.1154L60 11.8735C60 11.0021 59.2936 10.2956 58.4221 10.2956L1.57788 10.2956C0.70644 10.2956 0 11.0021 0 11.8735L0 28.1154C0 28.9869 0.70644 29.6933 1.57788 29.6933Z" fill="#1A1A1A"/>
<path d="M1.57788 95.408L58.4221 95.408C59.2936 95.408 60 94.7016 60 93.8301L60 77.5882C60 76.7168 59.2936 76.0104 58.4221 76.0104L1.57788 76.0104C0.70644 76.0104 0 76.7168 0 77.5882L0 93.8301C0 94.7016 0.70644 95.408 1.57788 95.408Z" fill="#1A1A1A"/>
<path d="M21.6844 114.841L38.6544 114.841C49.1196 114.841 57.6033 106.358 57.6033 95.8926L57.6033 18.9489C57.6033 8.4837 49.1196 0 38.6544 0L21.6844 0C11.2193 0 2.73556 8.4837 2.73556 18.9489L2.73556 95.8926C2.73556 106.358 11.2193 114.841 21.6844 114.841Z" fill="#6190E8"/>
<path d="M25.9574 77.9749L34.3792 77.9749C43.6815 77.9749 51.2226 70.4339 51.2226 61.1315L51.2226 26.7022C51.2226 17.3998 43.6815 9.85877 34.3792 9.85877L25.9574 9.85877C16.6551 9.85877 9.11398 17.3998 9.11398 26.7022L9.11398 61.1315C9.11398 70.4339 16.6551 77.9749 25.9574 77.9749Z" fill="#162D50"/>
<path d="M43.1829 114.295C46.4386 113.499 49.4241 111.852 51.8335 109.522C54.2429 107.192 55.9895 104.264 56.8943 101.037C53.841 102.222 51.0553 104.005 48.7007 106.282C46.3461 108.559 44.4701 111.283 43.1829 114.295Z" fill="#FFDD55"/>
<path d="M17.1228 114.295C13.8671 113.499 10.8814 111.852 8.47201 109.522C6.06258 107.192 4.316 104.264 3.4112 101.037C6.46455 102.222 9.25033 104.005 11.6049 106.282C13.9596 108.559 15.8356 111.283 17.1228 114.295Z" fill="#FFDD55"/>
<path d="M20.4264 60.4703L39.9124 60.4703C49.6828 60.4703 57.6033 52.5498 57.6033 42.7794V36.2125C57.6033 26.4421 49.6828 18.5216 39.9124 18.5216L20.4264 18.5216C10.656 18.5216 2.73556 26.4421 2.73556 36.2125V42.7794C2.73556 52.5498 10.656 60.4703 20.4264 60.4703Z" fill="#6190E8"/>
</svg>
