<svg width="60" height="115" viewBox="0 0 60 115" fill="none" xmlns="http://www.w3.org/2000/svg">
<path d="M1.57788 29.6933L58.4221 29.6933C59.2936 29.6933 60 28.9868 60 28.1154L60 11.8735C60 11.0021 59.2936 10.2956 58.4221 10.2956L1.57788 10.2956C0.70644 10.2956 0 11.0021 0 11.8735L0 28.1154C0 28.9868 0.70644 29.6933 1.57788 29.6933Z" fill="#1A1A1A"/>
<path d="M1.57788 95.408L58.4221 95.408C59.2936 95.408 60 94.7016 60 93.8301L60 77.5882C60 76.7168 59.2936 76.0104 58.4221 76.0104L1.57788 76.0104C0.70644 76.0104 0 76.7168 0 77.5882L0 93.8301C0 94.7016 0.70644 95.408 1.57788 95.408Z" fill="#1A1A1A"/>
<path d="M9.04953 114.841L51.2847 114.841C54.7731 114.841 57.601 112.014 57.601 108.525L57.601 6.31625C57.601 2.82787 54.7731 -3.8147e-05 51.2847 -3.8147e-05L9.04953 -3.8147e-05C5.56114 -3.8147e-05 2.73324 2.82787 2.73324 6.31625L2.73324 108.525C2.73324 112.014 5.56114 114.841 9.04953 114.841Z" fill="#E44545"/>
<path d="M15.4303 84.0358L44.9063 84.0358C48.3947 84.0358 51.2226 81.2079 51.2226 77.7195L51.2226 22.236C51.2226 18.7476 48.3947 15.9197 44.9063 15.9197L15.4303 15.9197C11.9419 15.9197 9.11398 18.7476 9.11398 22.236L9.11398 77.7195C9.11398 81.2079 11.9419 84.0358 15.4303 84.0358Z" fill="#162D50"/>
<path d="M2.73324 61.2556L57.601 61.2556L57.601 27.4207L2.73324 27.4207L2.73324 61.2556Z" fill="#E44545"/>
<path d="M51.2847 114.841C52.1147 114.843 52.9368 114.681 53.704 114.364C54.4711 114.048 55.1682 113.583 55.7551 112.996C56.342 112.409 56.8072 111.712 57.1239 110.945C57.4407 110.177 57.6028 109.355 57.6009 108.525L57.6009 102.796C54.7785 103.795 52.202 105.385 50.0443 107.46C47.8866 109.535 46.1975 112.048 45.09 114.829L51.2847 114.841Z" fill="#FFDD55"/>
<path d="M9.04939 114.841C8.2194 114.843 7.39727 114.681 6.63008 114.364C5.8629 114.048 5.16585 113.583 4.57895 112.996C3.99206 112.409 3.52688 111.712 3.21012 110.945C2.89337 110.177 2.73122 109.355 2.73311 108.525L2.73311 102.796C5.55552 103.795 8.13201 105.385 10.2897 107.46C12.4474 109.535 14.1366 112.048 15.244 114.829L9.04939 114.841Z" fill="#FFDD55"/>
</svg>
