<svg width="60" height="115" viewBox="0 0 60 115" fill="none" xmlns="http://www.w3.org/2000/svg">
<path d="M1.57788 29.6933L58.4221 29.6933C59.2936 29.6933 60 28.9868 60 28.1154L60 11.8735C60 11.0021 59.2936 10.2956 58.4221 10.2956L1.57788 10.2956C0.70644 10.2956 0 11.0021 0 11.8735L0 28.1154C0 28.9868 0.70644 29.6933 1.57788 29.6933Z" fill="#1A1A1A"/>
<path d="M1.57788 95.408L58.4221 95.408C59.2936 95.408 60 94.7016 60 93.8301L60 77.5882C60 76.7168 59.2936 76.0104 58.4221 76.0104L1.57788 76.0104C0.70644 76.0104 0 76.7168 0 77.5882L0 93.8301C0 94.7016 0.70644 95.408 1.57788 95.408Z" fill="#1A1A1A"/>
<path d="M9.05185 114.841L51.287 114.841C54.7754 114.841 57.6033 112.014 57.6033 108.525L57.6033 6.31625C57.6033 2.82787 54.7754 -3.8147e-05 51.287 -3.8147e-05L9.05185 -3.8147e-05C5.56346 -3.8147e-05 2.73556 2.82787 2.73556 6.31625L2.73556 108.525C2.73556 112.014 5.56346 114.841 9.05185 114.841Z" fill="#ABC837"/>
<path d="M15.4303 84.0358L44.9063 84.0358C48.3947 84.0358 51.2226 81.2079 51.2226 77.7195L51.2226 22.236C51.2226 18.7476 48.3947 15.9197 44.9063 15.9197L15.4303 15.9197C11.9419 15.9197 9.11398 18.7476 9.11398 22.236L9.11398 77.7195C9.11398 81.2079 11.9419 84.0358 15.4303 84.0358Z" fill="#162D50"/>
<path d="M2.73556 61.2556L57.6033 61.2556L57.6033 27.4207L2.73556 27.4207L2.73556 61.2556Z" fill="#ABC837"/>
<path d="M51.3061 114.832C52.1361 114.834 52.9583 114.672 53.7255 114.355C54.4927 114.038 55.1897 113.573 55.7766 112.986C56.3635 112.399 56.8287 111.702 57.1455 110.935C57.4622 110.168 57.6242 109.346 57.6223 108.516L57.6223 102.787C54.7999 103.785 52.2236 105.375 50.0659 107.451C47.9082 109.526 46.219 112.039 45.1116 114.82L51.3061 114.832Z" fill="#FFDD55"/>
<path d="M9.05422 114.841C8.22422 114.843 7.40209 114.681 6.63491 114.364C5.86773 114.048 5.17067 113.583 4.58378 112.996C3.99688 112.409 3.5317 111.712 3.21495 110.945C2.89819 110.177 2.73604 109.355 2.73793 108.525L2.73793 102.796C5.56034 103.795 8.13683 105.385 10.2945 107.46C12.4522 109.535 14.1414 112.048 15.2488 114.829L9.05422 114.841Z" fill="#FFDD55"/>
</svg>
