<svg width="375" height="812" viewBox="0 0 375 812" fill="none" xmlns="http://www.w3.org/2000/svg">
<path d="M295 0H80V812H295V0Z" fill="#90A0AD"/>
<path d="M375 0H316V812H375V0Z" fill="#D7D7D7"/>
<path d="M59 0H0V812H59V0Z" fill="#D7D7D7"/>
<path d="M299 0H295V812H299V0Z" fill="#1A1A1A"/>
<path d="M316 0H299V812H316V0Z" fill="url(#paint0_linear_314_3331)"/>
<path d="M74.6804 812H80L80 0.0446167H74.6804L74.6804 812Z" fill="#1A1A1A"/>
<path d="M59 812H75L75 0H59L59 812Z" fill="url(#paint1_linear_314_3331)"/>
<path d="M27.1895 533.611C31.2473 526.471 33.1805 515.63 31.5073 509.396C29.8341 503.162 25.1882 503.897 21.1303 511.037C17.0725 518.177 15.1394 529.018 16.8126 535.252C18.4858 541.485 23.1317 540.751 27.1895 533.611Z" fill="#CACACA"/>
<path d="M34.6773 168.558C40.7824 166.717 45.3106 156.077 44.7914 144.794C44.2721 133.512 38.9021 125.858 32.7971 127.7C26.692 129.542 22.1638 140.181 22.6831 151.464C23.2023 162.747 28.5723 170.4 34.6773 168.558Z" fill="#CACACA"/>
<path d="M21.2264 353.671L31.9655 324.8L35.3774 354.874L21.2264 353.671Z" fill="#CACACA"/>
<path d="M19.9759 715.763L40.0943 698.721L14.1509 691.704L19.9759 715.763Z" fill="#CACACA"/>
<path d="M353.969 287.022C358.893 287.022 362.884 280.914 362.884 273.38C362.884 265.846 358.893 259.739 353.969 259.739C349.046 259.739 345.054 265.846 345.054 273.38C345.054 280.914 349.046 287.022 353.969 287.022Z" fill="#CACACA"/>
<path d="M335.51 647.959C341.615 646.125 346.143 635.527 345.624 624.289C345.105 613.05 339.735 605.427 333.63 607.261C327.525 609.096 322.996 619.694 323.516 630.932C324.035 642.17 329.405 649.794 335.51 647.959Z" fill="#CACACA"/>
<path d="M350.441 610.147C351.892 609.747 352.967 607.046 352.843 604.113C352.719 601.181 351.442 599.127 349.992 599.526C348.541 599.926 347.466 602.627 347.59 605.56C347.714 608.493 348.991 610.546 350.441 610.147Z" fill="#CACACA"/>
<path d="M354.415 85.8205L358.424 56.2637L364.219 75.5893L363.328 96.0397L356.196 85.8145L354.415 85.8205Z" fill="#CACACA"/>
<path d="M351.74 787.041L359.759 754.074L363.769 787.041H351.74Z" fill="#CACACA"/>
<line x1="188.5" x2="188.5" y2="812" stroke="white" stroke-dasharray="50 50"/>
<path d="M239.839 662.284C239.488 662.284 239.14 662.296 238.793 662.311C238.411 662.325 238.034 662.352 237.66 662.386H237.638C232.589 662.823 227.785 664.793 223.847 668.042C219.909 671.292 217.018 675.67 215.548 680.612H213.698C213.506 680.612 213.316 680.65 213.138 680.725C212.961 680.799 212.8 680.909 212.664 681.047C212.528 681.186 212.421 681.35 212.347 681.531C212.274 681.711 212.237 681.905 212.237 682.101V697.427C212.237 697.622 212.274 697.816 212.347 697.997C212.421 698.177 212.528 698.342 212.664 698.48C212.8 698.618 212.961 698.728 213.138 698.803C213.316 698.877 213.506 698.916 213.698 698.915H214.454V738.342H213.698C213.506 738.342 213.316 738.38 213.138 738.454C212.961 738.529 212.8 738.639 212.664 738.777C212.528 738.915 212.421 739.08 212.347 739.261C212.274 739.441 212.237 739.635 212.237 739.831V755.156C212.237 755.352 212.274 755.546 212.347 755.727C212.421 755.907 212.528 756.072 212.664 756.21C212.8 756.348 212.961 756.458 213.138 756.533C213.316 756.607 213.506 756.646 213.698 756.645H214.98C215.434 758.983 216.428 761.176 217.878 763.046C221.893 768.201 232.811 768.48 239.839 768.48C246.867 768.48 258.415 768.573 261.8 763.046C263.014 761.076 263.893 758.912 264.402 756.645H266.295C266.487 756.646 266.677 756.607 266.855 756.533C267.032 756.458 267.193 756.348 267.329 756.21C267.465 756.072 267.572 755.907 267.646 755.727C267.719 755.546 267.757 755.352 267.756 755.156V739.831C267.757 739.635 267.719 739.441 267.646 739.261C267.572 739.08 267.465 738.915 267.329 738.777C267.193 738.639 267.032 738.529 266.855 738.454C266.677 738.38 266.487 738.342 266.295 738.342H265.223V698.915H266.295C266.487 698.916 266.677 698.877 266.855 698.803C267.032 698.728 267.193 698.618 267.329 698.48C267.465 698.342 267.572 698.177 267.646 697.997C267.719 697.816 267.757 697.622 267.756 697.427V682.101C267.757 681.905 267.719 681.711 267.646 681.531C267.572 681.35 267.465 681.186 267.329 681.047C267.193 680.909 267.032 680.799 266.855 680.725C266.677 680.65 266.487 680.612 266.295 680.612H264.133C262.663 675.67 259.772 671.292 255.833 668.042C251.895 664.793 247.091 662.823 242.042 662.386H242.018C241.651 662.355 241.283 662.328 240.913 662.313H240.882C240.536 662.299 240.187 662.287 239.839 662.287V662.284Z" fill="#1A1A1A"/>
<path d="M268.422 740.174H211.578C210.706 740.174 210 740.894 210 741.782V758.334C210 759.222 210.706 759.942 211.578 759.942H268.422C269.294 759.942 270 759.222 270 758.334V741.782C270 740.894 269.294 740.174 268.422 740.174Z" fill="#1A1A1A"/>
<path d="M268.422 677.802H211.578C210.706 677.802 210 678.522 210 679.41V695.962C210 696.85 210.706 697.57 211.578 697.57H268.422C269.294 697.57 270 696.85 270 695.962V679.41C270 678.522 269.294 677.802 268.422 677.802Z" fill="#1A1A1A"/>
<path d="M239.832 658C243.437 657.992 247.008 658.709 250.34 660.111C253.672 661.513 256.7 663.573 259.249 666.17C261.799 668.768 263.819 671.854 265.195 675.25C266.571 678.645 267.275 682.285 267.267 685.959V747.08C267.267 754.823 267.283 760.805 263.567 766.867C259.905 772.84 247.432 772.74 239.832 772.74C232.231 772.74 220.436 772.438 216.097 766.867C211.757 761.297 212.397 754.826 212.397 747.08V685.964C212.388 682.29 213.092 678.65 214.468 675.254C215.844 671.859 217.865 668.773 220.414 666.175C222.963 663.577 225.991 661.518 229.323 660.116C232.655 658.714 236.226 657.997 239.832 658.005V658Z" fill="#E44545"/>
<path d="M229.794 662.576C227.286 663.201 224.986 664.494 223.13 666.323C221.273 668.152 219.928 670.452 219.231 672.985C221.583 672.055 223.729 670.655 225.543 668.868C227.357 667.081 228.802 664.942 229.794 662.578V662.576Z" fill="#FFDD55"/>
<path d="M249.869 662.576C252.377 663.201 254.677 664.494 256.534 666.323C258.39 668.153 259.735 670.452 260.432 672.986C258.08 672.055 255.934 670.655 254.12 668.867C252.306 667.079 250.861 664.941 249.869 662.576Z" fill="#FFDD55"/>
<path d="M238.703 658.027C238.291 658.045 237.881 658.072 237.474 658.107H237.45C237.037 658.145 236.629 658.19 236.223 658.244V772.687C237.087 772.706 237.894 772.718 238.705 772.721V658.025L238.703 658.027ZM240.961 658.027V772.73C241.761 772.73 242.572 772.73 243.444 772.713V658.246C243.038 658.192 242.629 658.147 242.217 658.11H242.191C241.783 658.074 241.373 658.047 240.961 658.029V658.027Z" fill="white"/>
<path d="M244.043 695.571H235.621C226.318 695.571 218.777 703.256 218.777 712.736V747.822C218.777 757.302 226.318 764.987 235.621 764.987H244.043C253.345 764.987 260.886 757.302 260.886 747.822V712.736C260.886 703.256 253.345 695.571 244.043 695.571Z" fill="#162D50"/>
<path d="M246.291 713.407H233.37C221.787 713.407 212.397 722.976 212.397 734.781V734.783C212.397 746.587 221.787 756.156 233.37 756.156H246.291C257.875 756.156 267.265 746.587 267.265 734.783V734.781C267.265 722.976 257.875 713.407 246.291 713.407Z" fill="#E44545"/>
<path d="M236.223 713.407V756.156H238.705V713.407H236.223ZM240.959 713.407V756.156H243.441V713.407H240.959Z" fill="white"/>
<path d="M240.001 749.687C248.122 749.687 254.706 742.978 254.706 734.702C254.706 726.425 248.122 719.716 240.001 719.716C231.88 719.716 225.296 726.425 225.296 734.702C225.296 742.978 231.88 749.687 240.001 749.687Z" fill="white"/>
<path d="M211.578 414.693H268.422C269.294 414.693 270 413.987 270 413.115V396.873C270 396.002 269.294 395.296 268.422 395.296H211.578C210.706 395.296 210 396.002 210 396.873V413.115C210 413.987 210.706 414.693 211.578 414.693Z" fill="#1A1A1A"/>
<path d="M211.578 480.408H268.422C269.294 480.408 270 479.702 270 478.83V462.588C270 461.717 269.294 461.01 268.422 461.01H211.578C210.706 461.01 210 461.717 210 462.588V478.83C210 479.702 210.706 480.408 211.578 480.408Z" fill="#1A1A1A"/>
<path d="M231.684 499.841H248.654C259.12 499.841 267.603 491.358 267.603 480.893L267.603 403.949C267.603 393.484 259.12 385 248.654 385H231.684C221.219 385 212.736 393.484 212.736 403.949L212.736 480.893C212.736 491.358 221.219 499.841 231.684 499.841Z" fill="#6190E8"/>
<path d="M235.957 462.975H244.379C253.682 462.975 261.223 455.434 261.223 446.131V411.702C261.223 402.4 253.682 394.859 244.379 394.859H235.957C226.655 394.859 219.114 402.4 219.114 411.702V446.131C219.114 455.434 226.655 462.975 235.957 462.975Z" fill="#162D50"/>
<path d="M253.183 499.295C256.439 498.499 259.424 496.852 261.834 494.522C264.243 492.192 265.99 489.264 266.894 486.037C263.841 487.222 261.055 489.005 258.701 491.282C256.346 493.559 254.47 496.283 253.183 499.295Z" fill="#FFDD55"/>
<path d="M227.123 499.295C223.867 498.499 220.881 496.852 218.472 494.522C216.063 492.192 214.316 489.264 213.411 486.037C216.465 487.222 219.25 489.005 221.605 491.282C223.96 493.559 225.836 496.283 227.123 499.295Z" fill="#FFDD55"/>
<path d="M230.426 445.47H249.912C259.683 445.47 267.603 437.55 267.603 427.779V421.212C267.603 411.442 259.683 403.522 249.912 403.522H230.426C220.656 403.522 212.736 411.442 212.736 421.212V427.779C212.736 437.55 220.656 445.47 230.426 445.47Z" fill="#6190E8"/>
<path d="M100.106 74.7144L175.894 74.7144C177.057 74.7144 178 73.7718 178 72.6089V50.9562C178 49.7933 177.057 48.8506 175.894 48.8506L100.106 48.8506C98.9427 48.8506 98 49.7933 98 50.9562L98 72.6089C98 73.7718 98.9427 74.7144 100.106 74.7144Z" fill="#1A1A1A"/>
<path d="M100.106 185.092L175.894 185.092C177.057 185.092 178 184.15 178 182.987V161.334C178 160.171 177.057 159.228 175.894 159.228L100.106 159.228C98.9427 159.228 98 160.171 98 161.334L98 182.987C98 184.15 98.9427 185.092 100.106 185.092Z" fill="#1A1A1A"/>
<path d="M125.952 153.572H150.048C151.222 153.572 152.174 152.621 152.174 151.447V135.02C152.174 133.846 151.222 132.895 150.048 132.895H125.952C124.778 132.895 123.826 133.846 123.826 135.02V151.447C123.826 152.621 124.778 153.572 125.952 153.572Z" fill="#50224C"/>
<path d="M124.164 207.633L151.833 207.633C164.125 207.633 174.089 197.669 174.089 185.378V166.128C174.089 153.836 164.125 143.872 151.833 143.872H124.164C111.872 143.872 101.908 153.836 101.908 166.128L101.908 185.378C101.908 197.669 111.872 207.633 124.164 207.633Z" fill="#E44545"/>
<path d="M110.331 140.867L165.667 140.867C170.318 140.867 174.089 137.096 174.089 132.444L174.089 43.4223C174.089 38.7708 170.318 35 165.667 35L110.331 35C105.679 35 101.908 38.7708 101.908 43.4223L101.908 132.444C101.908 137.096 105.679 140.867 110.331 140.867Z" fill="black"/>
<path d="M112.788 114.989L163.209 114.989C164.176 114.989 164.96 114.205 164.96 113.238C164.96 112.271 164.176 111.487 163.209 111.487L112.788 111.487C111.821 111.487 111.037 112.271 111.037 113.238C111.037 114.205 111.821 114.989 112.788 114.989Z" fill="#76655A"/>
<path d="M112.788 89.7852L163.209 89.7852C164.176 89.7852 164.96 89.0013 164.96 88.0344C164.96 87.0674 164.176 86.2836 163.209 86.2836L112.788 86.2836C111.821 86.2836 111.037 87.0674 111.037 88.0344C111.037 89.0013 111.821 89.7852 112.788 89.7852Z" fill="#76655A"/>
<path d="M112.788 64.5847L163.209 64.5847C164.176 64.5847 164.96 63.8008 164.96 62.8339C164.96 61.8669 164.176 61.0831 163.209 61.0831L112.788 61.0831C111.821 61.0831 111.037 61.8669 111.037 62.8339C111.037 63.8008 111.821 64.5847 112.788 64.5847Z" fill="#76655A"/>
<path d="M138 191.995C151.308 191.995 163.094 187.134 167.23 179.964C167.23 179.964 147.752 180.717 138.009 180.717C128.265 180.717 108.787 179.964 108.787 179.964C112.915 187.132 124.7 191.986 138 191.995Z" fill="#50224C"/>
<path d="M153.593 203.748C156.367 203.162 158.928 201.83 161.001 199.896C163.074 197.961 164.579 195.498 165.355 192.77C162.553 193.292 159.958 194.601 157.875 196.546C155.791 198.49 154.306 200.989 153.593 203.748Z" fill="#FFDD55"/>
<path d="M122.398 203.748C119.624 203.162 117.063 201.83 114.99 199.896C112.917 197.961 111.412 195.498 110.636 192.77C113.438 193.292 116.033 194.601 118.117 196.546C120.2 198.49 121.685 200.989 122.398 203.748Z" fill="#FFDD55"/>
<defs>
<linearGradient id="paint0_linear_314_3331" x1="298.983" y1="341.04" x2="316.034" y2="341.04" gradientUnits="userSpaceOnUse">
<stop stop-color="#9B9B9B"/>
<stop offset="0.246" stop-color="#9B9B9B"/>
<stop offset="0.289" stop-color="#AAAAAA"/>
<stop offset="0.487" stop-color="#AAAAAA"/>
<stop offset="0.522" stop-color="#BCBCBC"/>
<stop offset="1" stop-color="#BCBCBC"/>
</linearGradient>
<linearGradient id="paint1_linear_314_3331" x1="75.016" y1="341.04" x2="58.968" y2="341.04" gradientUnits="userSpaceOnUse">
<stop stop-color="#9B9B9B"/>
<stop offset="0.246" stop-color="#9B9B9B"/>
<stop offset="0.289" stop-color="#AAAAAA"/>
<stop offset="0.487" stop-color="#AAAAAA"/>
<stop offset="0.522" stop-color="#BCBCBC"/>
<stop offset="1" stop-color="#BCBCBC"/>
</linearGradient>
</defs>
</svg>
