<svg width="66" height="54" viewBox="0 0 66 54" fill="none" xmlns="http://www.w3.org/2000/svg">
<path d="M0.572021 17.7415L7.74701 0.175537L37.188 2.15454L41.641 36.5435L10.716 40.9965L0.572021 17.7415Z" fill="black"/>
<path d="M45.25 21.5575L49.008 10.6215L65.401 14.9215L50.287 29.4805L45.25 21.5575Z" fill="black"/>
<path d="M35.405 49.4665L29.141 53.2535L22.924 44.5115L36.174 43.5745L35.405 49.4665Z" fill="black"/>
<path d="M0.572021 17.7415L7.74701 0.175537L37.188 2.15454L41.641 36.5435L10.716 40.9965L0.572021 17.7415Z" fill="#ACA793"/>
<path d="M45.25 21.5575L49.008 10.6215L65.401 14.9215L50.287 29.4805L45.25 21.5575Z" fill="#ACA793"/>
<path d="M35.405 49.4665L29.141 53.2535L22.924 44.5115L36.174 43.5745L35.405 49.4665Z" fill="#ACA793"/>
</svg>
