<svg width="60" height="115" viewBox="0 0 60 115" fill="none" xmlns="http://www.w3.org/2000/svg">
<path d="M29.8389 4.28418C29.488 4.28418 29.1395 4.29638 28.7934 4.31098C28.4114 4.32558 28.0343 4.35235 27.6595 4.38641H27.638C22.5891 4.82303 17.7849 6.7933 13.8468 10.0425C9.90859 13.2917 7.01759 17.6703 5.54769 22.612H3.69769C3.50575 22.6117 3.31564 22.65 3.13825 22.7247C2.96086 22.7994 2.79969 22.909 2.66397 23.0473C2.52824 23.1856 2.42063 23.3499 2.34733 23.5307C2.27402 23.7115 2.23647 23.9052 2.23678 24.1008V39.4267C2.23647 39.6223 2.27402 39.816 2.34733 39.9968C2.42063 40.1776 2.52824 40.3418 2.66397 40.4801C2.79969 40.6184 2.96086 40.7281 3.13825 40.8028C3.31564 40.8775 3.50575 40.9158 3.69769 40.9155H4.45441V80.3419H3.69769C3.50575 80.3416 3.31564 80.3799 3.13825 80.4546C2.96086 80.5293 2.79969 80.639 2.66397 80.7773C2.52824 80.9156 2.42063 81.0799 2.34733 81.2606C2.27402 81.4414 2.23647 81.6351 2.23678 81.8307V97.1566C2.23647 97.3522 2.27402 97.546 2.34733 97.7267C2.42063 97.9075 2.52824 98.0718 2.66397 98.2101C2.79969 98.3484 2.96086 98.458 3.13825 98.5327C3.31564 98.6075 3.50575 98.6457 3.69769 98.6454H4.97957C5.43428 100.983 6.42753 103.176 7.8775 105.046C11.8926 110.201 22.8113 110.48 29.8389 110.48C36.8666 110.48 48.4154 110.573 51.8003 105.046C53.0135 103.076 53.893 100.912 54.4023 98.6454H56.2953C56.4872 98.6457 56.6773 98.6075 56.8547 98.5327C57.0321 98.458 57.1933 98.3484 57.329 98.2101C57.4647 98.0718 57.5723 97.9075 57.6456 97.7267C57.7189 97.546 57.7565 97.3522 57.7562 97.1566V81.8307C57.7565 81.6351 57.7189 81.4414 57.6456 81.2606C57.5723 81.0799 57.4647 80.9156 57.329 80.7773C57.1933 80.639 57.0321 80.5293 56.8547 80.4546C56.6773 80.3799 56.4872 80.3416 56.2953 80.3419H55.2234V40.9155H56.2953C56.4872 40.9158 56.6773 40.8775 56.8547 40.8028C57.0321 40.7281 57.1933 40.6184 57.329 40.4801C57.4647 40.3418 57.5723 40.1776 57.6456 39.9968C57.7189 39.816 57.7565 39.6223 57.7562 39.4267V24.1008C57.7565 23.9052 57.7189 23.7115 57.6456 23.5307C57.5723 23.3499 57.4647 23.1856 57.329 23.0473C57.1933 22.909 57.0321 22.7994 56.8547 22.7247C56.6773 22.65 56.4872 22.6117 56.2953 22.612H54.1325C52.6626 17.6703 49.7716 13.2917 45.8334 10.0425C41.8953 6.7933 37.0911 4.82303 32.0422 4.38641H32.0184C31.6507 4.35478 31.2831 4.32795 30.9131 4.31336H30.8821C30.536 4.29876 30.1875 4.28663 29.8389 4.28663V4.28418Z" fill="#1A1A1A"/>
<path d="M58.4221 82.1737H1.57788C0.706441 82.1737 0 82.8936 0 83.7817V100.334C0 101.222 0.706441 101.942 1.57788 101.942H58.4221C59.2936 101.942 60 101.222 60 100.334V83.7817C60 82.8936 59.2936 82.1737 58.4221 82.1737Z" fill="#1A1A1A"/>
<path d="M58.4221 19.8021H1.57788C0.706441 19.8021 0 20.522 0 21.4101V37.962C0 38.8501 0.706441 39.57 1.57788 39.57H58.4221C59.2936 39.57 60 38.8501 60 37.962V21.4101C60 20.522 59.2936 19.8021 58.4221 19.8021Z" fill="#1A1A1A"/>
<path d="M29.8316 0.000132913C33.4367 -0.00820678 37.0079 0.709249 40.3402 2.11136C43.6724 3.51346 46.7002 5.57257 49.2494 8.17045C51.7987 10.7683 53.8191 13.8538 55.1949 17.2497C56.5708 20.6456 57.2749 24.285 57.2667 27.9589V89.08C57.2667 96.8232 57.2833 102.805 53.5666 108.867C49.9048 114.84 37.4322 114.74 29.8316 114.74C22.231 114.74 10.4363 114.438 6.09658 108.867C1.75682 103.297 2.39659 96.8256 2.39659 89.08V27.9638C2.38841 24.2898 3.09242 20.6504 4.46827 17.2545C5.84411 13.8587 7.86468 10.7732 10.4139 8.17535C12.9631 5.57747 15.9907 3.51836 19.323 2.11626C22.6553 0.714149 26.2265 -0.00334409 29.8316 0.0049956V0.000132913Z" fill="#1A1A1A"/>
<path d="M19.794 4.57593C17.2858 5.2008 14.9858 6.49411 13.1296 8.32328C11.2735 10.1524 9.92784 12.4517 9.2309 14.9854C11.5829 14.0549 13.7289 12.6551 15.5428 10.8679C17.3567 9.08083 18.802 6.94247 19.794 4.57838V4.57593Z" fill="white"/>
<path d="M39.8693 4.57605C42.3775 5.20092 44.6775 6.49423 46.5336 8.3234C48.3898 10.1526 49.7353 12.4518 50.4322 14.9855C48.08 14.0548 45.9341 12.6545 44.1202 10.867C42.3062 9.07945 40.861 6.94059 39.8693 4.57605Z" fill="white"/>
<path d="M28.7029 0.026986C28.2907 0.0448257 27.8809 0.0715596 27.4735 0.107239H27.4496C27.0374 0.14454 26.6285 0.189949 26.2227 0.243468V114.686C27.0868 114.706 27.8936 114.718 28.7052 114.721V0.0245361L28.7029 0.026986ZM30.9611 0.026986V114.73C31.7607 114.73 32.5723 114.73 33.4436 114.713V0.245918C33.0378 0.192399 32.6289 0.14699 32.2167 0.109689H32.1905C31.7831 0.0740095 31.3732 0.0472385 30.9611 0.0293988V0.026986Z" fill="white"/>
<path d="M34.0424 37.5706H25.6207C16.3183 37.5706 8.77727 45.2556 8.77727 54.7355V89.8221C8.77727 99.3021 16.3183 106.987 25.6207 106.987H34.0424C43.3448 106.987 50.8859 99.3021 50.8859 89.8221V54.7355C50.8859 45.2556 43.3448 37.5706 34.0424 37.5706Z" fill="#162D50"/>
<path d="M36.2913 55.407H23.3699C11.7867 55.407 2.39674 64.9762 2.39674 76.7805V76.7829C2.39674 88.5872 11.7867 98.1565 23.3699 98.1565H36.2913C47.8745 98.1565 57.2645 88.5872 57.2645 76.7829V76.7805C57.2645 64.9762 47.8745 55.407 36.2913 55.407Z" fill="#1A1A1A"/>
<path d="M26.2227 55.407V98.1565H28.7052V55.407H26.2227ZM30.9587 55.407V98.1565H33.4413V55.407H30.9587Z" fill="white"/>
<path d="M30.0012 91.6869C38.1223 91.6869 44.7058 84.9777 44.7058 76.7016C44.7058 68.4254 38.1223 61.7162 30.0012 61.7162C21.88 61.7162 15.2966 68.4254 15.2966 76.7016C15.2966 84.9777 21.88 91.6869 30.0012 91.6869Z" fill="white"/>
</svg>
